<svg width="32" height="32" viewBox="0 0 32 32" fill="none" xmlns="http://www.w3.org/2000/svg">
<path d="M20.9772 29.499C19.5753 29.499 18.2153 29.2244 16.9345 28.6827C15.6978 28.1596 14.5871 27.4108 13.6334 26.4571C12.6797 25.5034 11.9309 24.3927 11.4078 23.156C10.8661 21.8754 10.5915 20.5152 10.5915 19.1133C10.5915 17.7114 10.8661 16.3512 11.4078 15.0706C11.9309 13.8338 12.6797 12.7232 13.6334 11.7695C14.5871 10.8158 15.6978 10.067 16.9345 9.54391C18.2151 9.00216 19.5753 8.7276 20.9772 8.7276C23.218 8.7276 25.352 9.42996 27.1481 10.7589C28.0124 11.3984 28.7698 12.1643 29.3995 13.0353C30.0372 13.9176 30.5294 14.8883 30.8626 15.9201L31 16.3457H27.5342L27.4461 16.1595C26.2701 13.6752 23.7352 12.0699 20.9881 12.0699C17.0506 12.0699 13.8472 15.2733 13.8472 19.2107C13.8472 23.1482 17.0506 26.3516 20.9881 26.3516C23.5099 26.3516 25.8708 24.9994 27.1498 22.8224L27.2442 22.6618H30.7528L30.5644 23.1128C29.7843 24.9809 28.4836 26.5712 26.8032 27.712C25.0811 28.881 23.0665 29.499 20.9772 29.499Z" fill="#032830"/>
<path d="M27.4304 22.9875H30.264C28.7468 26.6204 25.1601 29.1733 20.9772 29.1733C15.4212 29.1733 10.9171 24.6692 10.9171 19.1132C10.9171 13.5573 15.4212 9.0531 20.9772 9.0531C25.454 9.0531 29.248 11.9776 30.5529 16.0203H27.7404C26.544 13.4928 23.9703 11.7445 20.9881 11.7445C16.8644 11.7445 13.5216 15.0872 13.5216 19.2109C13.5216 23.3346 16.8644 26.6773 20.9881 26.6773C23.7339 26.6773 26.1334 25.1953 27.4304 22.9875Z" fill="#032830"/>
<path d="M4.84976 18.1257L4.81981 17.8331C4.53092 15.003 3.28746 12.3865 1.22378 10.2668L1 10.0368L3.43505 7.5976L3.66555 7.83136C4.87602 9.05941 5.87118 10.4576 6.63063 11.9958C7.4031 10.4353 8.41974 9.01817 9.65865 7.77558C11.1294 6.30074 12.8423 5.14084 14.7499 4.32822C16.7246 3.48717 18.8228 3.05654 20.9865 3.04851L21.3134 3.04721V6.34242H20.9878C17.5785 6.34242 14.3712 7.66814 11.9572 10.0756C9.86983 12.1573 8.55844 14.9121 8.26412 17.8324L8.2346 18.1255H4.84976V18.1257Z" fill="#087990"/>
<path d="M20.9881 3.37433V6.01709C17.3731 6.01709 14.0994 7.47999 11.7275 9.84536C9.64172 11.9255 8.25241 14.704 7.94051 17.8001H5.14386C4.84043 14.8277 3.49821 12.1363 1.45732 10.0398L3.43375 8.06015C4.76338 9.4091 5.85295 11.0011 6.63041 12.7644C7.41938 10.9796 8.53023 9.36873 9.88937 8.00567C12.7294 5.15759 16.6521 3.39039 20.9881 3.37433Z" fill="#087990"/>
</svg>
